<?xml version="1.0" encoding="UTF-8" standalone="no"?>
<svg
   width="700"
   height="220"
   viewBox="0 0 700 220"
   version="1.1"
   id="svg43"
   xmlns="http://www.w3.org/2000/svg"
   xmlns:svg="http://www.w3.org/2000/svg">
  <defs
     id="defs19">
    <linearGradient
       id="route"
       x1="42"
       y1="112"
       x2="222"
       y2="112"
       gradientUnits="userSpaceOnUse">
      <stop
         offset="0"
         stop-color="#1A5A73"
         id="stop2" />
      <stop
         offset="0.52"
         stop-color="#2E7D9B"
         id="stop4" />
      <stop
         offset="1"
         stop-color="#1A5A73"
         id="stop6" />
    </linearGradient>
    <linearGradient
       id="pin"
       x1="178"
       y1="36"
       x2="217"
       y2="96"
       gradientUnits="userSpaceOnUse">
      <stop
         offset="0"
         stop-color="#72AF2D"
         id="stop9" />
      <stop
         offset="1"
         stop-color="#5E8C2A"
         id="stop11" />
    </linearGradient>
    <linearGradient
       id="flow"
       x1="466"
       y1="55"
       x2="647"
       y2="120"
       gradientUnits="userSpaceOnUse">
      <stop
         offset="0"
         stop-color="#4A9DB8"
         id="stop14" />
      <stop
         offset="1"
         stop-color="#1A5A73"
         id="stop16" />
    </linearGradient>
  </defs>
  <g
     aria-label="urbanflow icon"
     transform="matrix(0.72,0,0,0.72,10,5)"
     id="g33">
    <path
       d="M 119,218 C 78,220 49,197 49,163 V 81 c 0,-14.5 11.5,-25 27,-25 15.5,0 27,10.5 27,25 v 72 c 0,15 10,25 25,25 14.5,0 22.5,-9 29.5,-25.5 l 11,-21.5 c 6,-12 15.5,-16 26.5,-13.5 11.5,3 18,13.5 18,27.5 v 39"
       fill="none"
       stroke="url(#route)"
       stroke-width="15.5"
       stroke-linecap="round"
       stroke-linejoin="round"
       id="path21" />
    <path
       id="circle23"
       style="fill:#7fc4d4"
       d="m 223.7,118.5 a 5.1999998,5.1999998 0 0 1 -5.2,5.2 5.1999998,5.1999998 0 0 1 -5.2,-5.2 5.1999998,5.1999998 0 0 1 5.2,-5.2 5.1999998,5.1999998 0 0 1 5.2,5.2 z" />
    <path
       transform="translate(0.8,0.3)"
       fill="url(#pin)"
       fill-rule="evenodd"
       d="m 198,31 c -15.8,0 -28.5,12.8 -28.5,28.5 0,9 3.9,15.8 9.5,22.3 l 19,21.7 19,-21.7 c 5.6,-6.5 9.5,-13.3 9.5,-22.3 C 226.5,43.8 213.8,31 198,31 Z m 0,13.3 a 14.4,14.4 0 1 0 0,28.8 14.4,14.4 0 0 0 0,-28.8 z"
       id="path25" />
    <path
       id="circle27"
       style="fill:#5e8c2a"
       d="m 158.2,216.60001 a 10,10 0 0 1 -10,10 10,10 0 0 1 -10,-10 10,10 0 0 1 10,-10 10,10 0 0 1 10,10 z" />
    <path
       id="circle29"
       style="fill:#d4551f"
       d="m 190.64999,216.45 a 10.5,10.5 0 0 1 -10.5,10.5 10.5,10.5 0 0 1 -10.5,-10.5 10.5,10.5 0 0 1 10.5,-10.5 10.5,10.5 0 0 1 10.5,10.5 z" />
    <path
       id="circle31"
       style="fill:#2e7d9b"
       d="m 221.8,216.55 a 10,10 0 0 1 -10,10 10,10 0 0 1 -10,-10 10,10 0 0 1 10,-10 10,10 0 0 1 10,10 z" />
  </g>
  <g
     aria-label="urbanflow"
     id="text39"
     style="font-size:77px;font-family:Inter, sans-serif;letter-spacing:-2">
    <path
       d="M 218.54199,102.38184 V 76.890625 h 6.91797 v 25.228025 q 0,5.97803 2.33106,8.98584 2.33105,2.97022 6.99316,2.97022 5.60205,0 8.83545,-3.57178 3.27099,-3.57178 3.27099,-9.73779 V 76.890625 h 6.91797 V 119 h -6.91797 v -6.4668 q -2.51904,3.83496 -5.86523,5.71485 -3.30859,1.84228 -7.70752,1.84228 -7.25635,0 -11.01611,-4.51172 -3.75977,-4.51172 -3.75977,-13.19677 z m 17.40772,-26.506352 z"
       style="fill:#11182b"
       id="path51" />
    <path
       d="m 290.45898,83.357422 q -1.16552,-0.676758 -2.55664,-0.977539 -1.35351,-0.338379 -3.00781,-0.338379 -5.86523,0 -9.02344,3.834961 -3.1206,3.797363 -3.1206,10.940918 V 119 h -6.95557 V 76.890625 h 6.95557 v 6.541992 q 2.18066,-3.834961 5.67724,-5.677246 3.49659,-1.879883 8.49707,-1.879883 0.71436,0 1.57911,0.112793 0.86474,0.0752 1.91748,0.263184 z"
       style="fill:#11182b"
       id="path53" />
    <path
       d="m 325.94385,97.98291 q 0,-7.632324 -3.15821,-11.956055 -3.1206,-4.361328 -8.60986,-4.361328 -5.48926,0 -8.64746,4.361328 -3.12061,4.323731 -3.12061,11.956055 0,7.63232 3.12061,11.99365 3.1582,4.32373 8.64746,4.32373 5.48926,0 8.60986,-4.32373 3.15821,-4.36133 3.15821,-11.99365 z M 302.40771,83.282227 q 2.18067,-3.759766 5.48926,-5.564454 3.34619,-1.842285 7.97071,-1.842285 7.66992,0 12.44482,6.090821 4.8125,6.09082 4.8125,16.016601 0,9.92578 -4.8125,16.0166 -4.7749,6.09082 -12.44482,6.09082 -4.62452,0 -7.97071,-1.80469 -3.30859,-1.84228 -5.48926,-5.60205 V 119 h -6.95556 V 60.498047 h 6.95556 z"
       style="fill:#11182b"
       id="path55" />
    <path
       d="m 361.72949,97.83252 q -8.38428,0 -11.61767,1.91748 -3.2334,1.91748 -3.2334,6.54199 0,3.68457 2.40625,5.86524 2.44385,2.14306 6.61719,2.14306 5.75244,0 9.21142,-4.06054 3.49658,-4.09815 3.49658,-10.865727 V 97.83252 Z m 13.79834,-2.857422 V 119 h -6.91797 v -6.3916 q -2.36865,3.83496 -5.90283,5.67724 -3.53418,1.80469 -8.64746,1.80469 -6.4668,0 -10.30176,-3.60937 -3.79736,-3.64698 -3.79736,-9.7378 0,-7.105953 4.7373,-10.715328 4.77491,-3.609375 14.21192,-3.609375 h 9.70019 v -0.676758 q 0,-4.774902 -3.1582,-7.36914 -3.12061,-2.631836 -8.79785,-2.631836 -3.60938,0 -7.03076,0.864746 -3.42139,0.864746 -6.57959,2.594238 v -6.391602 q 3.79736,-1.466308 7.36914,-2.180664 3.57177,-0.751953 6.95556,-0.751953 9.13623,0 13.64795,4.737305 4.51172,4.737305 4.51172,14.362305 z"
       style="fill:#11182b"
       id="path57" />
    <path
       d="M 422.78076,93.583984 V 119 h -6.91797 V 93.80957 q 0,-5.978027 -2.33105,-8.948242 -2.33106,-2.970215 -6.99317,-2.970215 -5.60205,0 -8.83545,3.571778 -3.23339,3.571777 -3.23339,9.737793 V 119 h -6.95557 V 76.890625 h 6.95557 v 6.541992 q 2.48144,-3.797363 5.82763,-5.677246 3.38379,-1.879883 7.78272,-1.879883 7.25635,0 10.97851,4.511719 3.72217,4.474121 3.72217,13.196777 z"
       style="fill:#11182b"
       id="path59" />
    <path
       d="m 449.35498,60.498047 h 19.25 V 119 h -6.95557 V 66.250488 h -12.36962 q -3.72217,0 -5.18848,1.503907 -1.42871,1.503906 -1.42871,5.414062 v 3.722168 h 11.39209 V 82.26709 H 442.6626 V 119 h -6.95557 V 82.26709 h -6.61719 v -5.376465 h 6.61719 v -2.932617 q 0,-7.030762 3.271,-10.226563 3.27099,-3.233398 10.37695,-3.233398 z"
       style="fill:url(#flow)"
       id="path61" />
    <path
       d="m 495.39746,81.740723 q -5.56445,0 -8.79785,4.361328 -3.2334,4.32373 -3.2334,11.880859 0,7.55713 3.1958,11.91846 3.2334,4.32373 8.83545,4.32373 5.52686,0 8.76025,-4.36133 3.2334,-4.36133 3.2334,-11.88086 0,-7.481933 -3.2334,-11.843262 -3.23339,-4.398925 -8.76025,-4.398925 z m 0,-5.865235 q 9.02344,0 14.17432,5.865235 5.15088,5.865234 5.15088,16.242187 0,10.33936 -5.15088,16.24219 -5.15088,5.86523 -14.17432,5.86523 -9.06103,0 -14.21191,-5.86523 -5.11328,-5.90283 -5.11328,-16.24219 0,-10.376953 5.11328,-16.242187 5.15088,-5.865235 14.21191,-5.865235 z"
       style="fill:url(#flow)"
       id="path63" />
    <path
       d="m 520.16699,76.890625 h 6.91797 l 8.64746,32.860355 8.60987,-32.860355 h 8.15869 l 8.64746,32.860355 8.60986,-32.860355 h 6.91797 L 565.66016,119 h -8.1587 L 548.44043,84.485352 539.3418,119 h -8.15869 z"
       style="fill:url(#flow)"
       id="path65" />
  </g>
  <g
     aria-label="MOBILITY"
     id="text41"
     style="font-weight:600;font-size:27px;font-family:'Inter SemiBold', Inter, sans-serif;letter-spacing:11.5;fill:#2e7d9b">
    <path
       d="m 218.47852,144.31689 h 6.45996 l 4.48242,10.5337 4.50879,-10.5337 h 6.44677 V 164 h -4.79882 v -14.39648 l -4.53516,10.61279 h -3.2168 l -4.53515,-10.61279 V 164 h -4.81201 z"
       id="path68" />
    <path
       d="m 265.83789,147.63916 q -2.32031,0 -3.59912,1.71387 -1.27881,1.71386 -1.27881,4.82519 0,3.09815 1.27881,4.81201 1.27881,1.71387 3.59912,1.71387 2.3335,0 3.61231,-1.71387 1.2788,-1.71386 1.2788,-4.81201 0,-3.11133 -1.2788,-4.82519 -1.27881,-1.71387 -3.61231,-1.71387 z m 0,-3.67822 q 4.74609,0 7.43555,2.71582 2.68945,2.71582 2.68945,7.50146 0,4.77246 -2.68945,7.48828 -2.68946,2.71582 -7.43555,2.71582 -4.73291,0 -7.43555,-2.71582 -2.68945,-2.71582 -2.68945,-7.48828 0,-4.78564 2.68945,-7.50146 2.70264,-2.71582 7.43555,-2.71582 z"
       id="path70" />
    <path
       d="m 299.18311,151.93701 q 1.1997,0 1.81933,-0.52734 0.61963,-0.52735 0.61963,-1.55567 0,-1.01513 -0.61963,-1.54248 -0.61963,-0.54052 -1.81933,-0.54052 H 296.375 v 4.16601 z m 0.17138,8.60889 q 1.5293,0 2.29395,-0.646 0.77783,-0.64599 0.77783,-1.95117 0,-1.27881 -0.76465,-1.91162 -0.76465,-0.646 -2.30713,-0.646 H 296.375 v 5.15479 z m 4.71973,-7.07959 q 1.63476,0.47461 2.53125,1.75342 0.89648,1.27881 0.89648,3.13769 0,2.84766 -1.9248,4.24512 Q 303.65234,164 299.72363,164 h -8.42431 v -19.68311 h 7.62011 q 4.1001,0 5.93262,1.23926 1.8457,1.23926 1.8457,3.96826 0,1.43702 -0.67236,2.45215 -0.67236,1.00196 -1.95117,1.48975 z"
       id="path72" />
    <path
       d="m 323.37891,144.31689 h 5.07568 V 164 h -5.07568 z"
       id="path74" />
    <path
       d="m 344.9248,144.31689 h 5.07569 v 15.84668 h 8.91211 V 164 h -13.9878 z"
       id="path76" />
    <path
       d="m 373.62939,144.31689 h 5.07569 V 164 h -5.07569 z"
       id="path78" />
    <path
       d="m 392.82861,144.31689 h 18.14063 v 3.83643 h -6.52588 V 164 h -5.07568 v -15.84668 h -6.53907 z"
       id="path80" />
    <path
       d="m 422.35059,144.31689 h 5.55029 l 4.48242,7.01368 4.48242,-7.01368 h 5.56348 l -7.50147,11.39063 V 164 h -5.07568 v -8.29248 z"
       id="path82" />
  </g>
</svg>
