<?xml version="1.0" encoding="UTF-8" standalone="no"?>
<svg
   width="262"
   height="264"
   viewBox="0 0 262 264"
   version="1.1"
   id="svg28"
   xmlns="http://www.w3.org/2000/svg"
   xmlns:svg="http://www.w3.org/2000/svg">
  <defs
     id="defs14">
    <linearGradient
       id="route"
       x1="42"
       y1="112"
       x2="222"
       y2="112"
       gradientUnits="userSpaceOnUse">
      <stop
         offset="0"
         stop-color="#1A5A73"
         id="stop2" />
      <stop
         offset="0.52"
         stop-color="#2E7D9B"
         id="stop4" />
      <stop
         offset="1"
         stop-color="#1A5A73"
         id="stop6" />
    </linearGradient>
    <linearGradient
       id="pin"
       x1="178"
       y1="36"
       x2="217"
       y2="96"
       gradientUnits="userSpaceOnUse">
      <stop
         offset="0"
         stop-color="#72AF2D"
         id="stop9" />
      <stop
         offset="1"
         stop-color="#5E8C2A"
         id="stop11" />
    </linearGradient>
  </defs>
  <path
     d="M119 218C78 220 49 197 49 163V81C49 66.5 60.5 56 76 56C91.5 56 103 66.5 103 81V153C103 168 113 178 128 178C142.5 178 150.5 169 157.5 152.5L168.5 131C174.5 119 184 115 195 117.5C206.5 120.5 213 131 213 145V184"
     fill="none"
     stroke="url(#route)"
     stroke-width="15.5"
     stroke-linecap="round"
     stroke-linejoin="round"
     id="path16" />
  <circle
     cx="218.5"
     cy="118.5"
     r="5.2"
     fill="#7FC4D4"
     id="circle18" />
  <path
     transform="translate(.8 .3)"
     fill="url(#pin)"
     fill-rule="evenodd"
     d="M198 31C182.2 31 169.5 43.8 169.5 59.5C169.5 68.5 173.4 75.3 179 81.8L198 103.5L217 81.8C222.6 75.3 226.5 68.5 226.5 59.5C226.5 43.8 213.8 31 198 31ZM198 44.3A14.4 14.4 0 1 0 198 73.1A14.4 14.4 0 0 0 198 44.3Z"
     id="path20" />
  <circle
     cx="148.2"
     cy="216.6"
     r="10"
     fill="#5E8C2A"
     id="circle22" />
  <circle
     cx="180.15"
     cy="216.45"
     r="10.5"
     fill="#D4551F"
     id="circle24" />
  <circle
     cx="211.8"
     cy="216.55"
     r="10"
     fill="#2E7D9B"
     id="circle26" />
</svg>
