<?xml version="1.0" encoding="UTF-8"?>
<svg xmlns="http://www.w3.org/2000/svg" aria-hidden="true">
  <defs><symbol id="uf-navigation-home" viewBox="0 0 24 24"><path d="M3 10.5 12 3l9 7.5" stroke="currentColor" fill="none"/><path d="M5.5 9.5V21h13V9.5" stroke="currentColor" fill="none"/><path d="M9.5 21v-7h5v7" stroke="currentColor" fill="none"/></symbol>
  <symbol id="uf-navigation-search" viewBox="0 0 24 24"><circle cx="10.5" cy="10.5" r="6.5" stroke="currentColor" fill="none"/><path d="m15.5 15.5 5 5" stroke="currentColor" fill="none"/></symbol>
  <symbol id="uf-navigation-favorites" viewBox="0 0 24 24"><path d="M20.8 4.8a5.2 5.2 0 0 0-7.4 0L12 6.2l-1.4-1.4a5.2 5.2 0 1 0-7.4 7.4L12 21l8.8-8.8a5.2 5.2 0 0 0 0-7.4Z" stroke="currentColor" fill="none"/></symbol>
  <symbol id="uf-navigation-favorites-filled" viewBox="0 0 24 24"><path d="M20.8 4.8a5.2 5.2 0 0 0-7.4 0L12 6.2l-1.4-1.4a5.2 5.2 0 1 0-7.4 7.4L12 21l8.8-8.8a5.2 5.2 0 0 0 0-7.4Z" fill="currentColor" stroke="none"/></symbol>
  <symbol id="uf-navigation-profile" viewBox="0 0 24 24"><circle cx="12" cy="8" r="4" stroke="currentColor" fill="none"/><path d="M4.5 21a7.5 7.5 0 0 1 15 0" stroke="currentColor" fill="none"/></symbol>
  <symbol id="uf-actions-menu" viewBox="0 0 24 24"><path d="M4 7h16M4 12h16M4 17h16" stroke="currentColor" fill="none"/></symbol>
  <symbol id="uf-actions-close" viewBox="0 0 24 24"><path d="m5 5 14 14M19 5 5 19" stroke="currentColor" fill="none"/></symbol>
  <symbol id="uf-actions-arrow-left" viewBox="0 0 24 24"><path d="M20 12H4m6-6-6 6 6 6" stroke="currentColor" fill="none"/></symbol>
  <symbol id="uf-actions-arrow-right" viewBox="0 0 24 24"><path d="M4 12h16m-6-6 6 6-6 6" stroke="currentColor" fill="none"/></symbol>
  <symbol id="uf-actions-chevron-right" viewBox="0 0 24 24"><path d="m9 5 7 7-7 7" stroke="currentColor" fill="none"/></symbol>
  <symbol id="uf-actions-filters" viewBox="0 0 24 24"><path d="M4 6h16M7 12h10M10 18h4" stroke="currentColor" fill="none"/><circle cx="8" cy="6" r="1.5" fill="currentColor" stroke="none"/><circle cx="15" cy="12" r="1.5" fill="currentColor" stroke="none"/><circle cx="12" cy="18" r="1.5" fill="currentColor" stroke="none"/></symbol>
  <symbol id="uf-actions-swap" viewBox="0 0 24 24"><path d="M7 7h12l-3-3m3 3-3 3M17 17H5l3 3m-3-3 3-3" stroke="currentColor" fill="none"/></symbol>
  <symbol id="uf-actions-locate" viewBox="0 0 24 24"><circle cx="12" cy="12" r="4" stroke="currentColor" fill="none"/><circle cx="12" cy="12" r="9" stroke="currentColor" fill="none"/><path d="M12 1v3m0 16v3M1 12h3m16 0h3" stroke="currentColor" fill="none"/></symbol>
  <symbol id="uf-actions-share" viewBox="0 0 24 24"><circle cx="18" cy="5" r="2.5" stroke="currentColor" fill="none"/><circle cx="6" cy="12" r="2.5" stroke="currentColor" fill="none"/><circle cx="18" cy="19" r="2.5" stroke="currentColor" fill="none"/><path d="m8.2 10.8 7.6-4.5m-7.6 6.9 7.6 4.5" stroke="currentColor" fill="none"/></symbol>
  <symbol id="uf-actions-edit" viewBox="0 0 24 24"><path d="M4 20h4l11-11-4-4L4 16v4Z" stroke="currentColor" fill="none"/><path d="m13.5 6.5 4 4" stroke="currentColor" fill="none"/></symbol>
  <symbol id="uf-actions-trash" viewBox="0 0 24 24"><path d="M4 7h16M9 3h6l1 4H8l1-4Zm-2 4 1 14h8l1-14M10 11v6m4-6v6" stroke="currentColor" fill="none"/></symbol>
  <symbol id="uf-actions-bookmark" viewBox="0 0 24 24"><path d="M6 3h12v18l-6-4-6 4V3Z" stroke="currentColor" fill="none"/></symbol>
  <symbol id="uf-transport-train" viewBox="0 0 24 24"><rect x="5" y="3" width="14" height="15" rx="4" stroke="currentColor" fill="none"/><path d="M8 7h8M7 13h10M9 18l-2 3m8-3 2 3" stroke="currentColor" fill="none"/><circle cx="9" cy="15" r="1" fill="currentColor" stroke="none"/><circle cx="15" cy="15" r="1" fill="currentColor" stroke="none"/></symbol>
  <symbol id="uf-transport-bus" viewBox="0 0 24 24"><rect x="4" y="4" width="16" height="15" rx="3" stroke="currentColor" fill="none"/><path d="M7 4V2h10v2M7 9h10M4 13h16M7 19v2m10-2v2" stroke="currentColor" fill="none"/><circle cx="8" cy="16" r="1" fill="currentColor" stroke="none"/><circle cx="16" cy="16" r="1" fill="currentColor" stroke="none"/></symbol>
  <symbol id="uf-transport-bike" viewBox="0 0 24 24"><circle cx="6" cy="17" r="4" stroke="currentColor" fill="none"/><circle cx="18" cy="17" r="4" stroke="currentColor" fill="none"/><path d="m6 17 4-8h4l4 8m-8-8 4 8H6m4-8-2-3h3m4 3h3" stroke="currentColor" fill="none"/></symbol>
  <symbol id="uf-transport-walk" viewBox="0 0 24 24"><circle cx="13" cy="4" r="2" stroke="currentColor" fill="none"/><path d="m11 8-2 5 3 2 2 6m-3-8 4-2 3 3m-7 1-4 5" stroke="currentColor" fill="none"/></symbol>
  <symbol id="uf-transport-shared" viewBox="0 0 24 24"><circle cx="5" cy="12" r="2.5" stroke="currentColor" fill="none"/><circle cx="19" cy="6" r="2.5" stroke="currentColor" fill="none"/><circle cx="19" cy="18" r="2.5" stroke="currentColor" fill="none"/><path d="M7.5 11 16.6 7m-9.1 6 9.1 4" stroke="currentColor" fill="none"/></symbol>
  <symbol id="uf-status-clock" viewBox="0 0 24 24"><circle cx="12" cy="12" r="9" stroke="currentColor" fill="none"/><path d="M12 7v5l3.5 2" stroke="currentColor" fill="none"/></symbol>
  <symbol id="uf-status-info" viewBox="0 0 24 24"><circle cx="12" cy="12" r="9" stroke="currentColor" fill="none"/><path d="M12 11v6" stroke="currentColor" fill="none"/><circle cx="12" cy="7.5" r="1" fill="currentColor" stroke="none"/></symbol>
  <symbol id="uf-status-alert" viewBox="0 0 24 24"><path d="M12 3 2.8 20h18.4L12 3Z" stroke="currentColor" fill="none"/><path d="M12 9v5" stroke="currentColor" fill="none"/><circle cx="12" cy="17" r="1" fill="currentColor" stroke="none"/></symbol>
  <symbol id="uf-status-check" viewBox="0 0 24 24"><circle cx="12" cy="12" r="9" stroke="currentColor" fill="none"/><path d="m8 12 2.5 2.5L16.5 8" stroke="currentColor" fill="none"/></symbol>
  <symbol id="uf-status-leaf" viewBox="0 0 24 24"><path d="M20 4C10 4 5 9 5 15c0 3 2 5 5 5 6 0 10-6 10-16Z" stroke="currentColor" fill="none"/><path d="M5 20c2-6 6-9 11-12" stroke="currentColor" fill="none"/></symbol>
  <symbol id="uf-status-co2" viewBox="0 0 24 24"><path d="M7 16a4 4 0 1 1 1-7.9A5.5 5.5 0 0 1 18.5 10 3 3 0 0 1 18 16H7Z" stroke="currentColor" fill="none"/><text x="7" y="14" fill="currentColor" stroke="none" font-family="Inter,Arial" font-size="6" font-weight="600">CO₂</text></symbol>
  <symbol id="uf-status-realtime" viewBox="0 0 24 24"><circle cx="12" cy="12" r="2" fill="currentColor" stroke="none"/><path d="M8.5 8.5a5 5 0 0 0 0 7m7-7a5 5 0 0 1 0 7M5.5 5.5a9 9 0 0 0 0 13m13-13a9 9 0 0 1 0 13" stroke="currentColor" fill="none"/></symbol></defs>
</svg>
